<?xml version="1.0" encoding="UTF-8" standalone="no"?>
<svg
   viewBox="0 0 448 512"
   version="1.1"
   id="svg4"
   sodipodi:docname="clover-solid.svg"
   inkscape:version="1.1 (c68e22c387, 2021-05-23)"
   xmlns:inkscape="http://www.inkscape.org/namespaces/inkscape"
   xmlns:sodipodi="http://sodipodi.sourceforge.net/DTD/sodipodi-0.dtd"
   xmlns="http://www.w3.org/2000/svg"
   xmlns:svg="http://www.w3.org/2000/svg">
  <defs
     id="defs8" />
  <sodipodi:namedview
     id="namedview6"
     pagecolor="#505050"
     bordercolor="#eeeeee"
     borderopacity="1"
     inkscape:showpageshadow="0"
     inkscape:pageopacity="0"
     inkscape:pagecheckerboard="0"
     inkscape:deskcolor="#505050"
     showgrid="false"
     inkscape:zoom="1.6542969"
     inkscape:cx="338.81464"
     inkscape:cy="219.12633"
     inkscape:window-width="1920"
     inkscape:window-height="1027"
     inkscape:window-x="1912"
     inkscape:window-y="22"
     inkscape:window-maximized="1"
     inkscape:current-layer="layer2"
     inkscape:pageshadow="0"
     inkscape:snap-object-midpoints="true" />
  <!--! Font Awesome Pro 6.4.0 by @fontawesome - https://fontawesome.com License - https://fontawesome.com/license (Commercial License) Copyright 2023 Fonticons, Inc. -->
  <path
     d="M 173.3,32 C 139.4,32 112,59.4 112,93.3 v 4.9 c 0,12 3.3,23.7 9.4,34 1.0424,5.31329 34.31767,50.93104 34.31767,50.93104 0,0 -44.34455,-22.85997 -55.61767,-29.63104 -10.3,-6.2 -22,-9.4 -34,-9.4 H 61.3 C 27.4,144 0,171.4 0,205.3 c 0,16.2 6.5,31.8 17.9,43.3 l 1.2,1.2 c 3.4,3.4 3.4,9 0,12.4 l -1.2,1.2 C 6.5,274.9 0,290.5 0,306.7 0,340.6 27.4,368 61.3,368 h 4.9 c 12,0 23.7,-3.3 34,-9.4 11.78171,-3.00851 45.93898,-22.07436 45.93898,-22.07436 0,0 -20.44607,36.48093 -24.63898,43.37436 -6.2,10.3 -9.4,22 -9.4,34 v 4.9 c 0,33.8 27.4,61.3 61.3,61.3 16.2,0 31.8,-6.5 43.3,-17.9 l 1.2,-1.2 c 3.4,-3.4 9,-3.4 12.4,0 l 1.2,1.2 c 11.5,11.5 27.1,17.9 43.3,17.9 33.8,0 61.3,-27.4 61.3,-61.3 v -4.9 c 0,-12 -3.3,-23.7 -9.4,-34 -3.00851,-11.78171 -23.35667,-44.22924 -23.35667,-44.22924 0,0 36.35055,17.94026 44.65667,22.92924 10.3,6.2 22,9.4 34,9.4 h 4.9 c 33.8,0 61.3,-27.4 61.3,-61.3 0,-16.2 -6.5,-31.8 -17.9,-43.3 l -1.2,-1.2 c -3.4,-3.4 -3.4,-9 0,-12.4 l 1.2,-1.2 c 11.5,-11.5 17.9,-27.1 17.9,-43.3 0,-33.8 -27.4,-61.3 -61.3,-61.3 H 382 c -12,0 -23.7,3.3 -34,9.4 -7.62038,2.69669 -56.44439,34.76028 -56.44439,34.76028 0,0 30.47051,-48.37611 35.14439,-56.06028 6.2,-10.3 9.4,-22 9.4,-34 V 93.3 C 336,59.4 308.6,32 274.7,32 c -16.2,0 -31.8,6.5 -43.3,17.9 l -1.2,1.2 c -3.4,3.4 -9,3.4 -12.4,0 l -1.2,-1.2 C 205.1,38.5 189.5,32 173.3,32 Z"
     id="path2"
     sodipodi:nodetypes="ssscccscscsscssscccssscsssssscccssscsssssscccscscsscs" />
  <g
     inkscape:groupmode="layer"
     id="layer1"
     inkscape:label="Layer 1"
     style="display:inline" />
  <g
     inkscape:groupmode="layer"
     id="layer2"
     inkscape:label="Layer 2"
     style="display:inline">
    <circle
       style="fill:#ffffff;stroke-width:0;paint-order:fill markers stroke;stop-color:#000000"
       id="path844"
       cx="289.55899"
       cy="142.17749"
       r="27.783369" />
    <circle
       style="fill:#ffffff;stroke-width:0;paint-order:fill markers stroke;stop-color:#000000"
       id="path844-0"
       cx="289.55899"
       cy="142.17749"
       r="27.783369" />
  </g>
</svg>
