<?xml version="1.0" encoding="UTF-8" standalone="no"?>
<svg
   viewBox="0 0 448 512"
   version="1.1"
   id="svg4"
   sodipodi:docname="logo-smile.svg"
   inkscape:version="1.1 (c68e22c387, 2021-05-23)"
   xmlns:inkscape="http://www.inkscape.org/namespaces/inkscape"
   xmlns:sodipodi="http://sodipodi.sourceforge.net/DTD/sodipodi-0.dtd"
   xmlns="http://www.w3.org/2000/svg"
   xmlns:svg="http://www.w3.org/2000/svg">
  <defs
     id="defs8" />
  <sodipodi:namedview
     id="namedview6"
     pagecolor="#505050"
     bordercolor="#eeeeee"
     borderopacity="1"
     inkscape:showpageshadow="0"
     inkscape:pageopacity="0"
     inkscape:pagecheckerboard="0"
     inkscape:deskcolor="#505050"
     showgrid="false"
     inkscape:zoom="1.1697646"
     inkscape:cx="373.152"
     inkscape:cy="321.85963"
     inkscape:window-width="1920"
     inkscape:window-height="1027"
     inkscape:window-x="-8"
     inkscape:window-y="22"
     inkscape:window-maximized="1"
     inkscape:current-layer="svg4"
     inkscape:pageshadow="0"
     inkscape:snap-object-midpoints="false"
     inkscape:snap-bbox="true"
     inkscape:snap-global="false"
     inkscape:bbox-paths="true"
     inkscape:bbox-nodes="true"
     inkscape:snap-bbox-edge-midpoints="true"
     inkscape:snap-bbox-midpoints="true"
     inkscape:snap-center="false"
     inkscape:snap-others="false" />
  <!--! Font Awesome Pro 6.4.0 by @fontawesome - https://fontawesome.com License - https://fontawesome.com/license (Commercial License) Copyright 2023 Fonticons, Inc. -->
  <path
     d="M 173.3,32 C 139.4,32 112,59.4 112,93.3 v 4.9 c 0,12 3.3,23.7 9.4,34 1.0424,5.31329 34.31767,50.93104 34.31767,50.93104 0,0 -44.34455,-22.85997 -55.61767,-29.63104 -10.3,-6.2 -22,-9.4 -34,-9.4 H 61.3 C 27.4,144 0,171.4 0,205.3 c 0,16.2 6.5,31.8 17.9,43.3 l 1.2,1.2 c 3.4,3.4 3.4,9 0,12.4 l -1.2,1.2 C 6.5,274.9 0,290.5 0,306.7 0,340.6 27.4,368 61.3,368 h 4.9 c 12,0 23.7,-3.3 34,-9.4 11.78171,-3.00851 45.93898,-22.07436 45.93898,-22.07436 0,0 -20.44607,36.48093 -24.63898,43.37436 -6.2,10.3 -9.4,22 -9.4,34 v 4.9 c 0,33.8 27.4,61.3 61.3,61.3 16.2,0 31.8,-6.5 43.3,-17.9 l 1.2,-1.2 c 3.4,-3.4 9,-3.4 12.4,0 l 1.2,1.2 c 11.5,11.5 27.1,17.9 43.3,17.9 33.8,0 61.3,-27.4 61.3,-61.3 v -4.9 c 0,-12 -3.3,-23.7 -9.4,-34 -3.00851,-11.78171 -23.35667,-44.22924 -23.35667,-44.22924 0,0 36.35055,17.94026 44.65667,22.92924 10.3,6.2 22,9.4 34,9.4 h 4.9 c 33.8,0 61.3,-27.4 61.3,-61.3 0,-16.2 -6.5,-31.8 -17.9,-43.3 l -1.2,-1.2 c -3.4,-3.4 -3.4,-9 0,-12.4 l 1.2,-1.2 c 11.5,-11.5 17.9,-27.1 17.9,-43.3 0,-33.8 -27.4,-61.3 -61.3,-61.3 H 382 c -12,0 -23.7,3.3 -34,9.4 -7.62038,2.69669 -56.44439,34.76028 -56.44439,34.76028 0,0 30.47051,-48.37611 35.14439,-56.06028 6.2,-10.3 9.4,-22 9.4,-34 V 93.3 C 336,59.4 308.6,32 274.7,32 c -16.2,0 -31.8,6.5 -43.3,17.9 l -1.2,1.2 c -3.4,3.4 -9,3.4 -12.4,0 l -1.2,-1.2 C 205.1,38.5 189.5,32 173.3,32 Z"
     id="path2"
     sodipodi:nodetypes="ssscccscscsscssscccssscsssssscccssscsssssscccscscsscs"
     style="display:inline;fill:#000000;fill-opacity:1"
     inkscape:highlight-color="3423548927" />
  <g
     inkscape:groupmode="layer"
     id="layer1"
     inkscape:label="Layer 1"
     style="display:inline" />
  <g
     inkscape:groupmode="layer"
     id="layer2"
     inkscape:label="Layer 2"
     style="display:inline">
    <path
       id="path2071-2"
       style="display:inline;fill:#ffffff;stroke-width:0;paint-order:fill markers stroke;stop-color:#000000"
       d="m 279.27623,188.12295 a 24.509818,52.588726 58.166956 0 1 -17.44767,15.65561 24.509818,52.588726 58.166956 0 1 -15.94457,9.33105 l -1.14677,11.64164 a 55.06594,23.407211 18.375187 0 0 20.44879,9.93853 55.06594,23.407211 18.375187 0 0 26.41261,6.69106 28.096366,22.760166 0 0 0 3.08243,-4.17949 28.096366,22.760166 0 0 0 2.50582,-8.76633 55.06594,23.407211 18.375187 0 1 -24.78621,-6.46197 55.06594,23.407211 18.375187 0 1 -6.78962,-2.76951 24.509818,52.588726 58.166956 0 0 7.56951,-4.87458 24.509818,52.588726 58.166956 0 0 18.37506,-16.76508 28.096366,22.760166 0 0 0 -3.43896,-3.99192 28.096366,22.760166 0 0 0 -8.84042,-5.44901 z" />
    <path
       style="display:inline;fill:#ffffff;stroke-width:0;paint-order:fill markers stroke;stop-color:#000000"
       d="m 168.05178,198.21286 a 28.096366,28.82674 0 0 0 -28.09671,28.82709 28.096366,28.82674 0 0 0 2.2628,11.21625 56.631402,28.82674 0 0 1 25.83391,-3.23784 56.631402,28.82674 0 0 1 25.85235,3.18379 28.096366,28.82674 0 0 0 2.24436,-11.1622 28.096366,28.82674 0 0 0 -28.09671,-28.82709 z"
       id="path844-8" />
    <path
       style="display:inline;fill:#ffffff;stroke-width:0;paint-order:fill markers stroke;stop-color:#000000"
       d="M 306.04776,255.74103 H 130.28957 a 87.922436,90.208011 0 0 0 -0.0649,0.93818 87.922436,90.208011 0 0 0 87.92333,90.20692 87.922436,90.208011 0 0 0 87.92137,-90.20692 87.922436,90.208011 0 0 0 -0.0217,-0.93818 z"
       id="path1282" />
  </g>
</svg>
