<?xml version="1.0" encoding="UTF-8" standalone="no"?>
<svg
   viewBox="0 0 448 512"
   version="1.1"
   id="svg4"
   sodipodi:docname="logo-smile.svg"
   inkscape:version="1.1 (c68e22c387, 2021-05-23)"
   xmlns:inkscape="http://www.inkscape.org/namespaces/inkscape"
   xmlns:sodipodi="http://sodipodi.sourceforge.net/DTD/sodipodi-0.dtd"
   xmlns="http://www.w3.org/2000/svg"
   xmlns:svg="http://www.w3.org/2000/svg">
  <defs
     id="defs8" />
  <sodipodi:namedview
     id="namedview6"
     pagecolor="#505050"
     bordercolor="#eeeeee"
     borderopacity="1"
     inkscape:showpageshadow="0"
     inkscape:pageopacity="0"
     inkscape:pagecheckerboard="0"
     inkscape:deskcolor="#505050"
     showgrid="false"
     inkscape:zoom="1.1697646"
     inkscape:cx="373.152"
     inkscape:cy="321.85963"
     inkscape:window-width="1920"
     inkscape:window-height="1027"
     inkscape:window-x="-8"
     inkscape:window-y="22"
     inkscape:window-maximized="1"
     inkscape:current-layer="svg4"
     inkscape:pageshadow="0"
     inkscape:snap-object-midpoints="false"
     inkscape:snap-bbox="true"
     inkscape:snap-global="false"
     inkscape:bbox-paths="true"
     inkscape:bbox-nodes="true"
     inkscape:snap-bbox-edge-midpoints="true"
     inkscape:snap-bbox-midpoints="true"
     inkscape:snap-center="false"
     inkscape:snap-others="false" />
  <!--! Font Awesome Pro 6.4.0 by @fontawesome - https://fontawesome.com License - https://fontawesome.com/license (Commercial License) Copyright 2023 Fonticons, Inc. -->
  <path
     id="path2"
     style="display:inline;fill:#000000;fill-opacity:1"
     inkscape:highlight-color="3423548927"
     d="M 173.30078 32 C 139.40078 32 112 59.400781 112 93.300781 L 112 98.199219 C 112 110.19922 115.30039 121.89922 121.40039 132.19922 C 122.44279 137.51251 155.7168 183.13086 155.7168 183.13086 C 155.7168 183.13086 111.37273 160.27107 100.09961 153.5 C 89.799607 147.3 78.099609 144.09961 66.099609 144.09961 L 61.300781 144.09961 C 27.400781 143.99961 -9.4739031e-15 171.40078 0 205.30078 C 0 221.50078 6.5003898 237.09961 17.900391 248.59961 L 19.099609 249.80078 C 22.499609 253.20078 22.499609 258.79922 19.099609 262.19922 L 17.900391 263.40039 C 6.5003898 274.90039 0 290.49922 0 306.69922 C 0 340.59922 27.400781 368 61.300781 368 L 66.199219 368 C 78.199219 368 89.899217 364.69961 100.19922 358.59961 C 111.98093 355.5911 146.13867 336.52539 146.13867 336.52539 C 146.13867 336.52539 125.69291 373.00696 121.5 379.90039 C 115.3 390.20039 112.09961 401.90039 112.09961 413.90039 L 112.09961 418.80078 C 112.09961 452.60078 139.50039 480.09961 173.40039 480.09961 C 189.60039 480.09961 205.19922 473.59922 216.69922 462.19922 L 217.90039 461 C 221.30039 457.6 226.90078 457.6 230.30078 461 L 231.5 462.19922 C 243 473.69922 258.60078 480.09961 274.80078 480.09961 C 308.60078 480.09961 336.09961 452.70078 336.09961 418.80078 L 336.09961 413.90039 C 336.09961 401.90039 332.79922 390.20039 326.69922 379.90039 C 323.69071 368.11868 303.34375 335.66992 303.34375 335.66992 C 303.34375 335.66992 339.69388 353.61063 348 358.59961 C 358.3 364.79961 370 368 382 368 L 386.90039 368 C 420.70039 368 448.19922 340.59922 448.19922 306.69922 C 448.19922 290.49922 441.70078 274.90039 430.30078 263.40039 L 429.09961 262.19922 C 425.69961 258.79922 425.69961 253.20078 429.09961 249.80078 L 430.30078 248.59961 C 441.80078 237.09961 448.19922 221.50078 448.19922 205.30078 C 448.19922 171.50078 420.80039 144 386.90039 144 L 382 144 C 370 144 358.3 147.30039 348 153.40039 C 340.37962 156.09708 291.55469 188.16016 291.55469 188.16016 C 291.55469 188.16016 322.02534 139.78378 326.69922 132.09961 C 332.89922 121.79961 336.09961 110.09961 336.09961 98.099609 L 336.09961 93.300781 C 335.99961 59.400781 308.59922 32 274.69922 32 C 258.49922 32 242.90039 38.500391 231.40039 49.900391 L 230.19922 51.099609 C 226.79922 54.499609 221.20078 54.499609 217.80078 51.099609 L 216.59961 49.900391 C 205.09961 38.500391 189.50078 32 173.30078 32 z M 279.27539 188.12305 A 28.096366 22.760166 0 0 1 288.11719 193.57227 A 28.096366 22.760166 0 0 1 291.55469 197.56445 A 24.509818 52.588726 58.166956 0 1 273.17969 214.32812 A 24.509818 52.588726 58.166956 0 1 265.61133 219.20312 A 55.06594 23.407211 18.375187 0 0 272.40039 221.97266 A 55.06594 23.407211 18.375187 0 0 297.1875 228.43555 A 28.096366 22.760166 0 0 1 294.68164 237.20117 A 28.096366 22.760166 0 0 1 291.59766 241.38086 A 55.06594 23.407211 18.375187 0 1 265.18555 234.68945 A 55.06594 23.407211 18.375187 0 1 244.73633 224.75195 L 245.88477 213.10938 A 24.509818 52.588726 58.166956 0 0 261.82812 203.7793 A 24.509818 52.588726 58.166956 0 0 279.27539 188.12305 z M 168.05273 198.21289 A 28.096366 28.82674 0 0 1 196.14844 227.03906 A 28.096366 28.82674 0 0 1 193.9043 238.20312 A 56.631402 28.82674 0 0 0 168.05273 235.01758 A 56.631402 28.82674 0 0 0 142.21875 238.25586 A 28.096366 28.82674 0 0 1 139.95508 227.03906 A 28.096366 28.82674 0 0 1 168.05273 198.21289 z M 130.28906 255.74023 L 306.04688 255.74023 A 87.922436 90.208011 0 0 1 306.07031 256.67969 A 87.922436 90.208011 0 0 1 218.14844 346.88672 A 87.922436 90.208011 0 0 1 130.22461 256.67969 A 87.922436 90.208011 0 0 1 130.28906 255.74023 z " />
  <g
     inkscape:groupmode="layer"
     id="layer1"
     inkscape:label="Layer 1"
     style="display:inline" />
  <g
     inkscape:groupmode="layer"
     id="layer2"
     inkscape:label="Layer 2"
     style="display:inline" />
</svg>
